<svg width="210" height="58" viewBox="0 0 210 58" fill="none" xmlns="http://www.w3.org/2000/svg">
<g filter="url(#filter0_d_2679_1627)">
<rect x="8.5" y="8.5" width="192.469" height="40" rx="20" stroke="#FF5963" stroke-opacity="0.4" shape-rendering="crispEdges"/>
</g>
<path fill-rule="evenodd" clip-rule="evenodd" d="M31.1203 25.5104C30.0269 25.5104 29.1406 26.3967 29.1406 27.49V32.8318C29.1406 34.3654 29.1406 35.1322 29.3563 35.7487C29.7427 36.8528 30.6108 37.7209 31.7149 38.1072C32.3313 38.3229 33.0981 38.3229 34.6317 38.3229H42.8683C44.4019 38.3229 45.1687 38.3229 45.7851 38.1072C46.8892 37.7209 47.7573 36.8528 48.1437 35.7487C48.3594 35.1322 48.3594 34.3654 48.3594 32.8318V27.49C48.3594 26.3967 47.4731 25.5104 46.3797 25.5104C45.6299 25.5104 44.9444 25.0867 44.6091 24.4161L43.7326 22.6632L43.7259 22.6497C43.2917 21.7874 42.4097 21.2423 41.4442 21.2396L41.4292 21.2396H36.0708L36.0558 21.2396C35.0903 21.2423 34.2083 21.7874 33.7741 22.6497L33.7674 22.6632L32.8909 24.4161C32.5556 25.0867 31.8701 25.5104 31.1203 25.5104ZM40.4581 30.849C40.4581 31.7924 39.6933 32.5573 38.7498 32.5573C37.8063 32.5573 37.0415 31.7924 37.0415 30.849C37.0415 29.9055 37.8063 29.1406 38.7498 29.1406C39.6933 29.1406 40.4581 29.9055 40.4581 30.849ZM43.0206 30.849C43.0206 33.2077 41.1085 35.1198 38.7498 35.1198C36.3911 35.1198 34.479 33.2077 34.479 30.849C34.479 28.4902 36.3911 26.5781 38.7498 26.5781C41.1085 26.5781 43.0206 28.4902 43.0206 30.849Z" fill="#FF5963"/>
<path d="M55.8267 29.9309V21.6028C55.8267 21.2358 55.9935 21.0522 56.3271 21.0522H57.248C57.5817 21.0522 57.7485 21.2358 57.7485 21.6028V29.6306C57.7485 31.4991 58.0121 32.7203 58.5393 33.2942C59.0732 33.8614 59.9407 34.145 61.1418 34.145C62.343 34.145 63.2072 33.8614 63.7344 33.2942C64.2682 32.7203 64.5352 31.4991 64.5352 29.6306V21.6028C64.5352 21.2358 64.702 21.0522 65.0356 21.0522H65.9565C66.2902 21.0522 66.457 21.2358 66.457 21.6028V29.9309C66.457 32.0463 65.9699 33.5378 64.9956 34.4053C64.028 35.2728 62.7434 35.7065 61.1418 35.7065C59.5403 35.7065 58.2524 35.2728 57.2781 34.4053C56.3105 33.5378 55.8267 32.0463 55.8267 29.9309ZM70.0305 39.4102C69.7302 39.4102 69.5801 39.26 69.5801 38.9597V25.3464C69.5801 25.0461 69.7302 24.896 70.0305 24.896H70.8713C71.1116 24.896 71.2417 25.0461 71.2617 25.3464L71.3218 26.1472H71.3418C71.7088 25.7068 72.1226 25.3598 72.583 25.1062C73.0435 24.8526 73.6574 24.7258 74.4248 24.7258C75.7594 24.7258 76.7738 25.273 77.4678 26.3674C78.1618 27.4552 78.5088 28.7164 78.5088 30.1511C78.5088 31.5859 78.1618 32.8504 77.4678 33.9448C76.7738 35.0326 75.7594 35.5764 74.4248 35.5764C73.6574 35.5764 73.0435 35.4496 72.583 35.196C72.1226 34.9425 71.7088 34.5955 71.3418 34.155H71.3218C71.3351 34.3552 71.3418 34.5588 71.3418 34.7656V38.9597C71.3418 39.26 71.1917 39.4102 70.8914 39.4102H70.0305ZM71.3418 31.3022C71.3418 32.3032 71.5787 33.0506 72.0525 33.5444C72.533 34.0316 73.1335 34.2751 73.8542 34.2751C74.8686 34.2751 75.5859 33.8948 76.0063 33.134C76.4334 32.3733 76.647 31.379 76.647 30.1511C76.647 28.9233 76.4334 27.929 76.0063 27.1682C75.5859 26.4075 74.8686 26.0271 73.8542 26.0271C73.1335 26.0271 72.533 26.274 72.0525 26.7678C71.5787 27.255 71.3418 27.999 71.3418 29V31.3022ZM81.2415 35.4062C80.9412 35.4062 80.791 35.2561 80.791 34.9558V22.4636C80.791 22.3302 80.8244 22.2034 80.8911 22.0833L81.5918 20.812C81.7186 20.5785 81.822 20.4617 81.9021 20.4617H82.2524C82.4526 20.4617 82.5527 20.5785 82.5527 20.812V34.9558C82.5527 35.2561 82.4026 35.4062 82.1023 35.4062H81.2415ZM84.825 30.1511C84.825 28.5829 85.2387 27.2883 86.0662 26.2673C86.9003 25.2397 88.1182 24.7258 89.7197 24.7258C91.3213 24.7258 92.5358 25.2397 93.3633 26.2673C94.1974 27.2883 94.6145 28.5829 94.6145 30.1511C94.6145 31.7193 94.1974 33.0173 93.3633 34.0449C92.5358 35.0659 91.3213 35.5764 89.7197 35.5764C88.1182 35.5764 86.9003 35.0659 86.0662 34.0449C85.2387 33.0173 84.825 31.7193 84.825 30.1511ZM86.6868 30.1511C86.6868 31.5525 86.9637 32.5902 87.5176 33.2642C88.0715 33.9382 88.8055 34.2751 89.7197 34.2751C90.634 34.2751 91.368 33.9382 91.9219 33.2642C92.4757 32.5902 92.7527 31.5525 92.7527 30.1511C92.7527 28.7498 92.4757 27.7121 91.9219 27.0381C91.368 26.3641 90.634 26.0271 89.7197 26.0271C88.8055 26.0271 88.0715 26.3641 87.5176 27.0381C86.9637 27.7121 86.6868 28.7498 86.6868 30.1511ZM96.3162 32.6035C96.3162 31.4157 96.87 30.5448 97.9778 29.991C99.0922 29.4371 100.754 29.1134 102.963 29.02V28.3394C102.963 27.7121 102.819 27.1715 102.532 26.7178C102.252 26.2573 101.691 26.0271 100.851 26.0271C100.317 26.0271 99.8896 26.0805 99.5693 26.1873C99.249 26.2874 98.9554 26.4242 98.6885 26.5977C98.4282 26.7645 98.178 26.9814 97.9377 27.2483C97.7576 27.4485 97.5874 27.4585 97.4272 27.2783L96.9067 26.6777C96.7599 26.5109 96.81 26.3107 97.0569 26.0771C97.4106 25.7435 97.7542 25.4932 98.0879 25.3264C98.4215 25.1596 98.8353 25.0194 99.3291 24.906C99.8296 24.7859 100.337 24.7258 100.851 24.7258C102.245 24.7258 103.24 25.0862 103.833 25.8069C104.427 26.5209 104.724 27.5019 104.724 28.7498V34.9558C104.724 35.2561 104.574 35.4062 104.274 35.4062H103.373C103.113 35.4062 102.983 35.2561 102.983 34.9558V34.4653H102.963C102.435 34.8791 101.918 35.1694 101.411 35.3362C100.911 35.4963 100.35 35.5764 99.7295 35.5764C98.6351 35.5764 97.7909 35.3162 97.197 34.7957C96.6098 34.2685 96.3162 33.5378 96.3162 32.6035ZM98.1379 32.6436C98.1379 33.0573 98.2247 33.391 98.3982 33.6445C98.5717 33.8914 98.8119 34.0516 99.1189 34.125C99.4259 34.1917 99.7462 34.2251 100.08 34.2251C100.594 34.2251 101.081 34.175 101.541 34.075C102.002 33.9749 102.476 33.7113 102.963 33.2842V30.3313C101.615 30.4314 100.654 30.5549 100.08 30.7017C99.5059 30.8418 99.0388 31.0887 98.6785 31.4424C98.3181 31.7894 98.1379 32.1898 98.1379 32.6436ZM107.007 30.1511C107.007 28.7164 107.354 27.4552 108.048 26.3674C108.742 25.273 109.756 24.7258 111.091 24.7258C111.858 24.7258 112.472 24.8526 112.932 25.1062C113.393 25.3598 113.807 25.7068 114.174 26.1472H114.194C114.18 25.947 114.174 25.7435 114.174 25.5366V21.0823C114.174 20.782 114.324 20.6318 114.624 20.6318H115.485C115.785 20.6318 115.935 20.782 115.935 21.0823V34.9558C115.935 35.2561 115.785 35.4062 115.485 35.4062H114.644C114.404 35.4062 114.274 35.2561 114.254 34.9558L114.194 34.155H114.174C113.807 34.5955 113.393 34.9425 112.932 35.196C112.472 35.4496 111.858 35.5764 111.091 35.5764C109.756 35.5764 108.742 35.0326 108.048 33.9448C107.354 32.8504 107.007 31.5859 107.007 30.1511ZM108.868 30.1511C108.868 31.379 109.079 32.3733 109.499 33.134C109.926 33.8948 110.647 34.2751 111.661 34.2751C112.382 34.2751 112.979 34.0316 113.453 33.5444C113.933 33.0506 114.174 32.3032 114.174 31.3022V29C114.174 27.999 113.933 27.255 113.453 26.7678C112.979 26.274 112.382 26.0271 111.661 26.0271C110.647 26.0271 109.926 26.4075 109.499 27.1682C109.079 27.929 108.868 28.9233 108.868 30.1511ZM126.396 35.4062C126.062 35.4062 125.895 35.2227 125.895 34.8557V21.6028C125.895 21.2358 126.062 21.0522 126.396 21.0522H130.6C132.868 21.0522 134.4 21.436 135.194 22.2034C135.988 22.9641 136.385 24.0118 136.385 25.3464C136.385 26.6811 135.988 27.7321 135.194 28.4995C134.4 29.2603 132.868 29.6406 130.6 29.6406H127.817V34.8557C127.817 35.2227 127.65 35.4062 127.316 35.4062H126.396ZM127.817 27.999H130.63C132.098 27.999 133.099 27.7922 133.633 27.3784C134.166 26.958 134.433 26.2807 134.433 25.3464C134.433 24.4122 134.166 23.7382 133.633 23.3245C133.099 22.9041 132.098 22.6938 130.63 22.6938H127.817V27.999ZM139.158 35.4062C138.858 35.4062 138.708 35.2561 138.708 34.9558V21.0823C138.708 20.782 138.858 20.6318 139.158 20.6318H140.019C140.319 20.6318 140.469 20.782 140.469 21.0823V25.5466C140.469 25.7468 140.463 25.947 140.449 26.1472H140.489C140.923 25.6667 141.39 25.3097 141.891 25.0762C142.391 24.8426 143.015 24.7258 143.762 24.7258C144.977 24.7258 145.848 25.0695 146.375 25.7568C146.909 26.4375 147.176 27.3717 147.176 28.5596V34.9558C147.176 35.2561 147.026 35.4062 146.725 35.4062H145.865C145.564 35.4062 145.414 35.2561 145.414 34.9558V29.04C145.414 27.7321 145.197 26.9046 144.763 26.5576C144.33 26.2039 143.779 26.0271 143.112 26.0271C142.244 26.0271 141.587 26.2874 141.14 26.8079C140.693 27.3217 140.469 28.2059 140.469 29.4604V34.9558C140.469 35.2561 140.319 35.4062 140.019 35.4062H139.158ZM149.428 30.1511C149.428 28.5829 149.842 27.2883 150.669 26.2673C151.503 25.2397 152.721 24.7258 154.323 24.7258C155.924 24.7258 157.139 25.2397 157.966 26.2673C158.8 27.2883 159.218 28.5829 159.218 30.1511C159.218 31.7193 158.8 33.0173 157.966 34.0449C157.139 35.0659 155.924 35.5764 154.323 35.5764C152.721 35.5764 151.503 35.0659 150.669 34.0449C149.842 33.0173 149.428 31.7193 149.428 30.1511ZM151.29 30.1511C151.29 31.5525 151.567 32.5902 152.121 33.2642C152.674 33.9382 153.409 34.2751 154.323 34.2751C155.237 34.2751 155.971 33.9382 156.525 33.2642C157.079 32.5902 157.356 31.5525 157.356 30.1511C157.356 28.7498 157.079 27.7121 156.525 27.0381C155.971 26.3641 155.237 26.0271 154.323 26.0271C153.409 26.0271 152.674 26.3641 152.121 27.0381C151.567 27.7121 151.29 28.7498 151.29 30.1511ZM160.979 26.2173C160.679 26.2173 160.529 26.1005 160.529 25.8669V25.2463C160.529 25.0128 160.679 24.896 160.979 24.896H162.16V23.9951C162.16 23.8617 162.194 23.7349 162.26 23.6147L162.961 22.3435C163.088 22.1099 163.191 21.9932 163.271 21.9932H163.622C163.822 21.9932 163.922 22.1099 163.922 22.3435V24.896H166.054C166.354 24.896 166.505 25.0128 166.505 25.2463V25.8669C166.505 26.1005 166.354 26.2173 166.054 26.2173H163.922V32.5935C163.922 33.2942 164.026 33.7513 164.232 33.9648C164.446 34.1717 164.7 34.2751 164.993 34.2751C165.22 34.2751 165.49 34.2084 165.804 34.075C166.124 33.9415 166.344 33.828 166.465 33.7346C166.585 33.6412 166.678 33.6712 166.745 33.8247L167.075 34.5955C167.129 34.7289 167.089 34.8357 166.955 34.9158C166.695 35.0693 166.314 35.2194 165.814 35.3662C165.313 35.5063 164.813 35.5764 164.312 35.5764C163.618 35.5764 163.085 35.3262 162.711 34.8257C162.344 34.3252 162.16 33.6178 162.16 32.7036V26.2173H160.979ZM168.507 30.1511C168.507 28.5829 168.92 27.2883 169.748 26.2673C170.582 25.2397 171.8 24.7258 173.401 24.7258C175.003 24.7258 176.217 25.2397 177.045 26.2673C177.879 27.2883 178.296 28.5829 178.296 30.1511C178.296 31.7193 177.879 33.0173 177.045 34.0449C176.217 35.0659 175.003 35.5764 173.401 35.5764C171.8 35.5764 170.582 35.0659 169.748 34.0449C168.92 33.0173 168.507 31.7193 168.507 30.1511ZM170.368 30.1511C170.368 31.5525 170.645 32.5902 171.199 33.2642C171.753 33.9382 172.487 34.2751 173.401 34.2751C174.316 34.2751 175.05 33.9382 175.604 33.2642C176.157 32.5902 176.434 31.5525 176.434 30.1511C176.434 28.7498 176.157 27.7121 175.604 27.0381C175.05 26.3641 174.316 26.0271 173.401 26.0271C172.487 26.0271 171.753 26.3641 171.199 27.0381C170.645 27.7121 170.368 28.7498 170.368 30.1511Z" fill="#FF5963"/>
<defs>
<filter id="filter0_d_2679_1627" x="0.137931" y="0.465518" width="209.193" height="56.7241" filterUnits="userSpaceOnUse" color-interpolation-filters="sRGB">
<feFlood flood-opacity="0" result="BackgroundImageFix"/>
<feColorMatrix in="SourceAlpha" type="matrix" values="0 0 0 0 0 0 0 0 0 0 0 0 0 0 0 0 0 0 127 0" result="hardAlpha"/>
<feMorphology radius="1.31034" operator="dilate" in="SourceAlpha" result="effect1_dropShadow_2679_1627"/>
<feOffset dy="0.327586"/>
<feGaussianBlur stdDeviation="3.27586"/>
<feComposite in2="hardAlpha" operator="out"/>
<feColorMatrix type="matrix" values="0 0 0 0 0 0 0 0 0 0 0 0 0 0 0 0 0 0 0.05 0"/>
<feBlend mode="normal" in2="BackgroundImageFix" result="effect1_dropShadow_2679_1627"/>
<feBlend mode="normal" in="SourceGraphic" in2="effect1_dropShadow_2679_1627" result="shape"/>
</filter>
</defs>
</svg>
