<svg width="344" height="64" viewBox="0 0 344 64" fill="none" xmlns="http://www.w3.org/2000/svg">
<g filter="url(#filter0_d_2679_1454)">
<rect x="8" y="7.70999" width="328" height="48" rx="24" fill="#FF5963"/>
</g>
<path d="M126.043 25.6191L129.45 35.9231H129.584L132.984 25.6191H135.592L130.977 38.71H128.05L123.441 25.6191H126.043ZM140.506 38.9018C139.522 38.9018 138.672 38.6972 137.956 38.2881C137.244 37.8748 136.697 37.291 136.313 36.5367C135.93 35.7782 135.738 34.8854 135.738 33.8584C135.738 32.8485 135.93 31.9621 136.313 31.1993C136.701 30.4323 137.242 29.8357 137.937 29.4096C138.631 28.9792 139.447 28.764 140.385 28.764C140.99 28.764 141.561 28.862 142.098 29.058C142.639 29.2498 143.116 29.5481 143.53 29.9529C143.947 30.3577 144.275 30.8733 144.514 31.4998C144.753 32.1219 144.872 32.8634 144.872 33.7242V34.4337H136.824V32.8741H142.654C142.65 32.4309 142.554 32.0367 142.366 31.6915C142.179 31.3421 141.917 31.0672 141.58 30.867C141.248 30.6667 140.86 30.5665 140.417 30.5665C139.944 30.5665 139.528 30.6816 139.17 30.9117C138.812 31.1375 138.533 31.4358 138.333 31.8066C138.137 32.1731 138.037 32.5758 138.032 33.0147V34.3762C138.032 34.9472 138.137 35.4373 138.346 35.8464C138.555 36.2512 138.846 36.5623 139.221 36.7796C139.596 36.9927 140.035 37.0992 140.538 37.0992C140.875 37.0992 141.18 37.0523 141.452 36.9586C141.725 36.8606 141.961 36.7178 142.162 36.5303C142.362 36.3428 142.513 36.1106 142.616 35.8336L144.776 36.0765C144.64 36.6475 144.38 37.1461 143.996 37.5722C143.617 37.9941 143.131 38.3222 142.539 38.5566C141.947 38.7867 141.269 38.9018 140.506 38.9018ZM146.83 38.71V28.8918H149.073V30.5282H149.175C149.354 29.9614 149.661 29.5246 150.096 29.2178C150.535 28.9067 151.036 28.7512 151.598 28.7512C151.726 28.7512 151.869 28.7576 152.026 28.7704C152.188 28.7789 152.322 28.7938 152.429 28.8151V30.9437C152.331 30.9096 152.175 30.8797 151.962 30.8542C151.754 30.8243 151.551 30.8094 151.355 30.8094C150.933 30.8094 150.554 30.901 150.217 31.0843C149.885 31.2633 149.623 31.5125 149.431 31.8322C149.239 32.1518 149.143 32.5204 149.143 32.938V38.71H146.83ZM153.966 38.71V28.8918H156.28V38.71H153.966ZM155.13 27.4983C154.763 27.4983 154.448 27.3769 154.184 27.134C153.919 26.8868 153.787 26.5907 153.787 26.2455C153.787 25.8961 153.919 25.5999 154.184 25.357C154.448 25.1098 154.763 24.9863 155.13 24.9863C155.5 24.9863 155.816 25.1098 156.076 25.357C156.34 25.5999 156.472 25.8961 156.472 26.2455C156.472 26.5907 156.34 26.8868 156.076 27.134C155.816 27.3769 155.5 27.4983 155.13 27.4983ZM163.633 28.8918V30.6816H157.829V28.8918H163.633ZM159.28 38.71V27.965C159.28 27.3045 159.416 26.7547 159.689 26.3158C159.966 25.8769 160.336 25.5488 160.801 25.3314C161.265 25.1141 161.781 25.0054 162.348 25.0054C162.748 25.0054 163.104 25.0374 163.415 25.1013C163.726 25.1652 163.956 25.2228 164.106 25.2739L163.645 27.0637C163.547 27.0339 163.424 27.004 163.275 26.9742C163.126 26.9401 162.959 26.9231 162.776 26.9231C162.346 26.9231 162.041 27.0275 161.862 27.2363C161.687 27.4408 161.6 27.7348 161.6 28.1184V38.71H159.28ZM166.883 42.3918C166.568 42.3918 166.276 42.3662 166.007 42.3151C165.743 42.2682 165.532 42.2128 165.374 42.1489L165.911 40.3464C166.248 40.4444 166.548 40.4912 166.813 40.487C167.077 40.4827 167.309 40.3996 167.509 40.2377C167.714 40.08 167.887 39.8158 168.027 39.4451L168.225 38.9145L164.665 28.8918H167.119L169.382 36.3066H169.485L171.754 28.8918H174.215L170.284 39.8989C170.1 40.4188 169.857 40.8641 169.555 41.2348C169.252 41.6098 168.882 41.8954 168.443 42.0914C168.008 42.2917 167.488 42.3918 166.883 42.3918ZM192.08 32.1645C192.08 33.575 191.816 34.7831 191.288 35.7888C190.764 36.7902 190.048 37.5573 189.14 38.09C188.237 38.6226 187.212 38.889 186.066 38.889C184.919 38.889 183.892 38.6226 182.985 38.09C182.081 37.553 181.365 36.7839 180.837 35.7824C180.313 34.7768 180.051 33.5708 180.051 32.1645C180.051 30.754 180.313 29.5481 180.837 28.5466C181.365 27.541 182.081 26.7718 182.985 26.2391C183.892 25.7064 184.919 25.4401 186.066 25.4401C187.212 25.4401 188.237 25.7064 189.14 26.2391C190.048 26.7718 190.764 27.541 191.288 28.5466C191.816 29.5481 192.08 30.754 192.08 32.1645ZM189.696 32.1645C189.696 31.1716 189.541 30.3343 189.23 29.6525C188.923 28.9664 188.497 28.4486 187.951 28.0992C187.406 27.7455 186.777 27.5687 186.066 27.5687C185.354 27.5687 184.725 27.7455 184.18 28.0992C183.634 28.4486 183.206 28.9664 182.895 29.6525C182.588 30.3343 182.435 31.1716 182.435 32.1645C182.435 33.1574 182.588 33.9969 182.895 34.683C183.206 35.3648 183.634 35.8826 184.18 36.2363C184.725 36.5857 185.354 36.7604 186.066 36.7604C186.777 36.7604 187.406 36.5857 187.951 36.2363C188.497 35.8826 188.923 35.3648 189.23 34.683C189.541 33.9969 189.696 33.1574 189.696 32.1645ZM193.167 27.607V25.6191H203.612V27.607H199.566V38.71H197.213V27.607H193.167ZM205.625 38.71V25.6191H210.534C211.54 25.6191 212.384 25.8066 213.066 26.1816C213.752 26.5566 214.269 27.0722 214.619 27.7285C214.972 28.3804 215.149 29.1219 215.149 29.9529C215.149 30.7924 214.972 31.5381 214.619 32.1901C214.265 32.8421 213.743 33.3556 213.053 33.7306C212.362 34.1013 211.512 34.2867 210.502 34.2867H207.249V32.3371H210.183C210.771 32.3371 211.252 32.2348 211.627 32.0303C212.002 31.8258 212.279 31.5445 212.458 31.1866C212.642 30.8286 212.733 30.4174 212.733 29.9529C212.733 29.4884 212.642 29.0793 212.458 28.7256C212.279 28.3719 212 28.0971 211.621 27.901C211.246 27.7008 210.762 27.6006 210.17 27.6006H207.997V38.71H205.625Z" fill="white"/>
<defs>
<filter id="filter0_d_2679_1454" x="0.137931" y="0.175509" width="343.724" height="63.7241" filterUnits="userSpaceOnUse" color-interpolation-filters="sRGB">
<feFlood flood-opacity="0" result="BackgroundImageFix"/>
<feColorMatrix in="SourceAlpha" type="matrix" values="0 0 0 0 0 0 0 0 0 0 0 0 0 0 0 0 0 0 127 0" result="hardAlpha"/>
<feMorphology radius="1.31034" operator="dilate" in="SourceAlpha" result="effect1_dropShadow_2679_1454"/>
<feOffset dy="0.327586"/>
<feGaussianBlur stdDeviation="3.27586"/>
<feComposite in2="hardAlpha" operator="out"/>
<feColorMatrix type="matrix" values="0 0 0 0 0 0 0 0 0 0 0 0 0 0 0 0 0 0 0.05 0"/>
<feBlend mode="normal" in2="BackgroundImageFix" result="effect1_dropShadow_2679_1454"/>
<feBlend mode="normal" in="SourceGraphic" in2="effect1_dropShadow_2679_1454" result="shape"/>
</filter>
</defs>
</svg>
