<svg width="344" height="65" viewBox="0 0 344 65" fill="none" xmlns="http://www.w3.org/2000/svg">
<g filter="url(#filter0_d_2679_1349)">
<rect x="8" y="8" width="328" height="48" rx="24" fill="#FF5963"/>
</g>
<path d="M131.406 29.5078C131.346 28.9496 131.094 28.5149 130.651 28.2038C130.212 27.8928 129.641 27.7372 128.938 27.7372C128.444 27.7372 128.02 27.8118 127.666 27.9609C127.313 28.1101 127.042 28.3125 126.854 28.5682C126.667 28.8239 126.571 29.1158 126.567 29.4439C126.567 29.7166 126.629 29.9531 126.752 30.1534C126.88 30.3537 127.053 30.5241 127.27 30.6648C127.487 30.8011 127.728 30.9162 127.992 31.0099C128.256 31.1037 128.523 31.1825 128.791 31.2464L130.018 31.5533C130.513 31.6683 130.988 31.8239 131.444 32.0199C131.904 32.2159 132.315 32.4631 132.678 32.7614C133.044 33.0597 133.334 33.4197 133.547 33.8416C133.76 34.2635 133.866 34.7578 133.866 35.3246C133.866 36.0916 133.67 36.767 133.278 37.3509C132.886 37.9304 132.32 38.3842 131.578 38.7124C130.841 39.0362 129.948 39.1982 128.9 39.1982C127.881 39.1982 126.997 39.0405 126.247 38.7251C125.501 38.4098 124.918 37.9496 124.496 37.3445C124.078 36.7393 123.852 36.0021 123.818 35.1328H126.151C126.185 35.5888 126.326 35.968 126.573 36.2706C126.82 36.5732 127.142 36.799 127.538 36.9482C127.939 37.0973 128.386 37.1719 128.881 37.1719C129.396 37.1719 129.848 37.0952 130.236 36.9418C130.628 36.7841 130.935 36.5668 131.156 36.2898C131.378 36.0085 131.491 35.6804 131.495 35.3054C131.491 34.9645 131.391 34.6832 131.195 34.4616C130.999 34.2358 130.724 34.0483 130.37 33.8991C130.021 33.7457 129.612 33.6094 129.143 33.4901L127.653 33.1065C126.575 32.8295 125.723 32.4098 125.097 31.8473C124.474 31.2805 124.163 30.5284 124.163 29.5909C124.163 28.8196 124.372 28.1442 124.79 27.5646C125.212 26.9851 125.785 26.5355 126.509 26.2159C127.234 25.892 128.054 25.7301 128.97 25.7301C129.899 25.7301 130.713 25.892 131.412 26.2159C132.115 26.5355 132.667 26.9808 133.067 27.5518C133.468 28.1186 133.675 28.7706 133.688 29.5078H131.406ZM140.225 39.1918C139.241 39.1918 138.39 38.9872 137.675 38.5781C136.963 38.1648 136.415 37.581 136.032 36.8267C135.648 36.0682 135.456 35.1754 135.456 34.1484C135.456 33.1385 135.648 32.2521 136.032 31.4893C136.42 30.7223 136.961 30.1257 137.655 29.6996C138.35 29.2692 139.166 29.054 140.104 29.054C140.709 29.054 141.28 29.152 141.817 29.348C142.358 29.5398 142.835 29.8381 143.248 30.2429C143.666 30.6477 143.994 31.1634 144.233 31.7898C144.471 32.4119 144.591 33.1534 144.591 34.0142V34.7237H136.543V33.1641H142.373C142.368 32.7209 142.273 32.3267 142.085 31.9815C141.898 31.6321 141.635 31.3572 141.299 31.157C140.966 30.9567 140.579 30.8565 140.135 30.8565C139.662 30.8565 139.247 30.9716 138.889 31.2017C138.531 31.4276 138.252 31.7259 138.052 32.0966C137.856 32.4631 137.756 32.8658 137.751 33.3047V34.6662C137.751 35.2372 137.856 35.7273 138.064 36.1364C138.273 36.5412 138.565 36.8523 138.94 37.0696C139.315 37.2827 139.754 37.3892 140.257 37.3892C140.594 37.3892 140.898 37.3423 141.171 37.2486C141.444 37.1506 141.68 37.0078 141.881 36.8203C142.081 36.6328 142.232 36.4006 142.334 36.1236L144.495 36.3665C144.358 36.9375 144.099 37.4361 143.715 37.8622C143.336 38.2841 142.85 38.6122 142.258 38.8466C141.665 39.0767 140.988 39.1918 140.225 39.1918ZM148.862 33.2472V39H146.548V29.1818H148.76V30.8501H148.875C149.101 30.3004 149.461 29.8636 149.955 29.5398C150.454 29.2159 151.07 29.054 151.803 29.054C152.48 29.054 153.07 29.1989 153.573 29.4886C154.08 29.7784 154.472 30.1982 154.749 30.7479C155.031 31.2976 155.169 31.9645 155.165 32.7486V39H152.851V33.1065C152.851 32.4503 152.68 31.9368 152.339 31.5661C152.003 31.1953 151.536 31.0099 150.94 31.0099C150.535 31.0099 150.175 31.0994 149.859 31.2784C149.548 31.4531 149.303 31.7067 149.124 32.0391C148.95 32.3714 148.862 32.7741 148.862 33.2472ZM161.161 39.1726C160.389 39.1726 159.699 38.9744 159.089 38.5781C158.48 38.1818 157.999 37.6065 157.645 36.8523C157.291 36.098 157.114 35.1818 157.114 34.1037C157.114 33.0128 157.293 32.0923 157.651 31.3423C158.013 30.5881 158.501 30.0192 159.115 29.6357C159.729 29.2479 160.413 29.054 161.167 29.054C161.742 29.054 162.215 29.152 162.586 29.348C162.957 29.5398 163.251 29.772 163.468 30.0447C163.685 30.3132 163.854 30.5668 163.973 30.8054H164.069V25.9091H166.389V39H164.114V37.4531H163.973C163.854 37.6918 163.681 37.9453 163.455 38.2138C163.229 38.478 162.931 38.7038 162.56 38.8913C162.19 39.0788 161.723 39.1726 161.161 39.1726ZM161.806 37.2741C162.296 37.2741 162.714 37.142 163.059 36.8778C163.404 36.6094 163.666 36.2365 163.845 35.7592C164.024 35.282 164.114 34.7259 164.114 34.0909C164.114 33.456 164.024 32.9041 163.845 32.4354C163.67 31.9666 163.411 31.6023 163.065 31.3423C162.724 31.0824 162.305 30.9524 161.806 30.9524C161.29 30.9524 160.86 31.0866 160.515 31.3551C160.17 31.6236 159.91 31.9943 159.735 32.4673C159.56 32.9403 159.473 33.4815 159.473 34.0909C159.473 34.7045 159.56 35.2521 159.735 35.7337C159.914 36.2109 160.176 36.5881 160.521 36.8651C160.871 37.1378 161.299 37.2741 161.806 37.2741ZM185.119 32.4545C185.119 33.8651 184.855 35.0732 184.327 36.0788C183.803 37.0803 183.087 37.8473 182.179 38.38C181.276 38.9126 180.251 39.179 179.105 39.179C177.958 39.179 176.931 38.9126 176.024 38.38C175.12 37.843 174.404 37.0739 173.876 36.0724C173.352 35.0668 173.09 33.8608 173.09 32.4545C173.09 31.044 173.352 29.8381 173.876 28.8366C174.404 27.831 175.12 27.0618 176.024 26.5291C176.931 25.9964 177.958 25.7301 179.105 25.7301C180.251 25.7301 181.276 25.9964 182.179 26.5291C183.087 27.0618 183.803 27.831 184.327 28.8366C184.855 29.8381 185.119 31.044 185.119 32.4545ZM182.735 32.4545C182.735 31.4616 182.58 30.6243 182.269 29.9425C181.962 29.2564 181.536 28.7386 180.99 28.3892C180.445 28.0355 179.816 27.8587 179.105 27.8587C178.393 27.8587 177.764 28.0355 177.219 28.3892C176.673 28.7386 176.245 29.2564 175.934 29.9425C175.627 30.6243 175.474 31.4616 175.474 32.4545C175.474 33.4474 175.627 34.2869 175.934 34.973C176.245 35.6548 176.673 36.1726 177.219 36.5263C177.764 36.8757 178.393 37.0504 179.105 37.0504C179.816 37.0504 180.445 36.8757 180.99 36.5263C181.536 36.1726 181.962 35.6548 182.269 34.973C182.58 34.2869 182.735 33.4474 182.735 32.4545ZM186.206 27.897V25.9091H196.651V27.897H192.605V39H190.252V27.897H186.206ZM198.664 39V25.9091H203.573C204.579 25.9091 205.423 26.0966 206.105 26.4716C206.791 26.8466 207.308 27.3622 207.658 28.0185C208.012 28.6705 208.188 29.4119 208.188 30.2429C208.188 31.0824 208.012 31.8281 207.658 32.4801C207.304 33.1321 206.782 33.6456 206.092 34.0206C205.401 34.3913 204.551 34.5767 203.541 34.5767H200.288V32.6271H203.222C203.81 32.6271 204.291 32.5249 204.666 32.3203C205.041 32.1158 205.318 31.8345 205.497 31.4766C205.681 31.1186 205.772 30.7074 205.772 30.2429C205.772 29.7784 205.681 29.3693 205.497 29.0156C205.318 28.6619 205.039 28.3871 204.66 28.1911C204.285 27.9908 203.801 27.8906 203.209 27.8906H201.036V39H198.664Z" fill="white"/>
<defs>
<filter id="filter0_d_2679_1349" x="0.137931" y="0.465517" width="343.724" height="63.7241" filterUnits="userSpaceOnUse" color-interpolation-filters="sRGB">
<feFlood flood-opacity="0" result="BackgroundImageFix"/>
<feColorMatrix in="SourceAlpha" type="matrix" values="0 0 0 0 0 0 0 0 0 0 0 0 0 0 0 0 0 0 127 0" result="hardAlpha"/>
<feMorphology radius="1.31034" operator="dilate" in="SourceAlpha" result="effect1_dropShadow_2679_1349"/>
<feOffset dy="0.327586"/>
<feGaussianBlur stdDeviation="3.27586"/>
<feComposite in2="hardAlpha" operator="out"/>
<feColorMatrix type="matrix" values="0 0 0 0 0 0 0 0 0 0 0 0 0 0 0 0 0 0 0.05 0"/>
<feBlend mode="normal" in2="BackgroundImageFix" result="effect1_dropShadow_2679_1349"/>
<feBlend mode="normal" in="SourceGraphic" in2="effect1_dropShadow_2679_1349" result="shape"/>
</filter>
</defs>
</svg>
