<svg width="366" height="68" viewBox="0 0 366 68" fill="none" xmlns="http://www.w3.org/2000/svg">
<g filter="url(#filter0_d_2679_1633)">
<rect x="9" y="8" width="348.5" height="51" rx="25.5" fill="#FF5963" fill-opacity="0.6" shape-rendering="crispEdges"/>
</g>
<path d="M158.339 30.4531C158.273 29.8329 157.994 29.3499 157.501 29.0043C157.014 28.6586 156.379 28.4858 155.598 28.4858C155.049 28.4858 154.578 28.5687 154.185 28.7344C153.792 28.9001 153.491 29.125 153.283 29.4091C153.074 29.6932 152.968 30.0175 152.963 30.3821C152.963 30.6851 153.032 30.9479 153.169 31.1705C153.311 31.393 153.503 31.5824 153.744 31.7386C153.986 31.8902 154.253 32.018 154.547 32.1222C154.84 32.2263 155.136 32.3139 155.435 32.3849L156.798 32.7259C157.348 32.8537 157.875 33.0265 158.382 33.2443C158.893 33.4621 159.35 33.7367 159.753 34.0682C160.16 34.3996 160.482 34.7997 160.719 35.2685C160.955 35.7372 161.074 36.2865 161.074 36.9162C161.074 37.7685 160.856 38.5189 160.42 39.1676C159.985 39.8116 159.355 40.3158 158.531 40.6804C157.712 41.0402 156.72 41.2202 155.555 41.2202C154.424 41.2202 153.441 41.045 152.608 40.6946C151.779 40.3442 151.131 39.8329 150.662 39.1605C150.198 38.4882 149.947 37.669 149.909 36.7031H152.501C152.539 37.2098 152.696 37.6312 152.97 37.9673C153.245 38.3035 153.602 38.5545 154.043 38.7202C154.488 38.8859 154.985 38.9688 155.534 38.9688C156.107 38.9688 156.609 38.8835 157.04 38.7131C157.475 38.5379 157.816 38.2964 158.062 37.9886C158.309 37.6761 158.434 37.3116 158.439 36.8949C158.434 36.5161 158.323 36.2036 158.105 35.9574C157.887 35.7064 157.582 35.4981 157.189 35.3324C156.801 35.1619 156.346 35.0104 155.825 34.8778L154.17 34.4517C152.973 34.1439 152.026 33.6776 151.33 33.0526C150.638 32.4228 150.293 31.5871 150.293 30.5455C150.293 29.6884 150.525 28.938 150.989 28.294C151.457 27.6501 152.094 27.1506 152.899 26.7955C153.704 26.4356 154.616 26.2557 155.634 26.2557C156.666 26.2557 157.57 26.4356 158.347 26.7955C159.128 27.1506 159.741 27.6454 160.186 28.2798C160.631 28.9096 160.861 29.634 160.875 30.4531H158.339ZM170.262 36.4119V30.0909H172.833V41H170.341V39.0611H170.227C169.981 39.6719 169.576 40.1714 169.012 40.5597C168.454 40.9479 167.765 41.142 166.946 41.142C166.231 41.142 165.599 40.9834 165.049 40.6662C164.505 40.3442 164.079 39.8778 163.771 39.267C163.463 38.6515 163.309 37.9081 163.309 37.0369V30.0909H165.88V36.6392C165.88 37.3305 166.07 37.8797 166.449 38.2869C166.827 38.6941 167.324 38.8977 167.94 38.8977C168.319 38.8977 168.686 38.8054 169.041 38.6207C169.396 38.4361 169.687 38.1615 169.914 37.7969C170.146 37.4276 170.262 36.9659 170.262 36.4119ZM175.591 41V26.4545H178.162V31.8949H178.268C178.401 31.6297 178.588 31.348 178.83 31.0497C179.071 30.7467 179.398 30.4886 179.81 30.2756C180.222 30.0578 180.747 29.9489 181.386 29.9489C182.229 29.9489 182.989 30.1643 183.666 30.5952C184.348 31.0213 184.888 31.6534 185.286 32.4915C185.688 33.3248 185.889 34.3475 185.889 35.5597C185.889 36.7576 185.693 37.7756 185.3 38.6136C184.907 39.4517 184.372 40.0909 183.695 40.5312C183.018 40.9716 182.25 41.1918 181.393 41.1918C180.768 41.1918 180.25 41.0876 179.838 40.8793C179.426 40.6709 179.095 40.42 178.844 40.1264C178.598 39.8281 178.406 39.5464 178.268 39.2812H178.119V41H175.591ZM178.112 35.5455C178.112 36.2509 178.212 36.8688 178.411 37.3991C178.614 37.9295 178.905 38.3437 179.284 38.642C179.668 38.9356 180.132 39.0824 180.676 39.0824C181.244 39.0824 181.72 38.9309 182.104 38.6278C182.487 38.3201 182.776 37.901 182.97 37.3707C183.169 36.8357 183.268 36.2273 183.268 35.5455C183.268 34.8684 183.171 34.267 182.977 33.7415C182.783 33.2159 182.494 32.804 182.111 32.5057C181.727 32.2074 181.249 32.0582 180.676 32.0582C180.127 32.0582 179.661 32.2027 179.277 32.4915C178.893 32.7803 178.602 33.1851 178.403 33.706C178.209 34.2268 178.112 34.84 178.112 35.5455ZM188.075 41V30.0909H190.532V31.9446H190.66C190.887 31.3196 191.264 30.8319 191.789 30.4815C192.315 30.1264 192.942 29.9489 193.672 29.9489C194.41 29.9489 195.033 30.1288 195.539 30.4886C196.051 30.8437 196.411 31.3291 196.619 31.9446H196.733C196.974 31.3385 197.381 30.8556 197.954 30.4957C198.532 30.1312 199.216 29.9489 200.007 29.9489C201.011 29.9489 201.83 30.2661 202.464 30.9006C203.099 31.535 203.416 32.4607 203.416 33.6776V41H200.838V34.0753C200.838 33.3982 200.658 32.9034 200.298 32.5909C199.938 32.2737 199.498 32.1151 198.977 32.1151C198.357 32.1151 197.871 32.3092 197.521 32.6974C197.175 33.081 197.002 33.5805 197.002 34.196V41H194.481V33.9688C194.481 33.4053 194.311 32.9555 193.97 32.6193C193.634 32.2831 193.193 32.1151 192.649 32.1151C192.279 32.1151 191.943 32.2098 191.64 32.3991C191.337 32.5838 191.096 32.8466 190.916 33.1875C190.736 33.5237 190.646 33.9167 190.646 34.3665V41H188.075ZM206.024 41V30.0909H208.595V41H206.024ZM207.317 28.5426C206.91 28.5426 206.559 28.4077 206.266 28.1378C205.972 27.8632 205.825 27.5341 205.825 27.1506C205.825 26.7623 205.972 26.4332 206.266 26.1634C206.559 25.8887 206.91 25.7514 207.317 25.7514C207.729 25.7514 208.079 25.8887 208.368 26.1634C208.661 26.4332 208.808 26.7623 208.808 27.1506C208.808 27.5341 208.661 27.8632 208.368 28.1378C208.079 28.4077 207.729 28.5426 207.317 28.5426ZM216.686 30.0909V32.0795H210.415V30.0909H216.686ZM211.963 27.4773H214.534V37.7188C214.534 38.0644 214.587 38.3295 214.691 38.5142C214.8 38.6941 214.942 38.8172 215.117 38.8835C215.292 38.9498 215.486 38.983 215.699 38.983C215.86 38.983 216.007 38.9711 216.14 38.9474C216.277 38.9238 216.381 38.9025 216.452 38.8835L216.885 40.8935C216.748 40.9408 216.551 40.9929 216.296 41.0497C216.045 41.1065 215.737 41.1397 215.373 41.1491C214.729 41.1681 214.149 41.071 213.632 40.858C213.116 40.6402 212.707 40.304 212.404 39.8494C212.105 39.3949 211.959 38.8267 211.963 38.1449V27.4773Z" fill="white"/>
<defs>
<filter id="filter0_d_2679_1633" x="0.646552" y="-0.00538737" width="365.207" height="67.7069" filterUnits="userSpaceOnUse" color-interpolation-filters="sRGB">
<feFlood flood-opacity="0" result="BackgroundImageFix"/>
<feColorMatrix in="SourceAlpha" type="matrix" values="0 0 0 0 0 0 0 0 0 0 0 0 0 0 0 0 0 0 127 0" result="hardAlpha"/>
<feMorphology radius="1.39224" operator="dilate" in="SourceAlpha" result="effect1_dropShadow_2679_1633"/>
<feOffset dy="0.34806"/>
<feGaussianBlur stdDeviation="3.4806"/>
<feComposite in2="hardAlpha" operator="out"/>
<feColorMatrix type="matrix" values="0 0 0 0 0 0 0 0 0 0 0 0 0 0 0 0 0 0 0.05 0"/>
<feBlend mode="normal" in2="BackgroundImageFix" result="effect1_dropShadow_2679_1633"/>
<feBlend mode="normal" in="SourceGraphic" in2="effect1_dropShadow_2679_1633" result="shape"/>
</filter>
</defs>
</svg>
